<svg xmlns="http://www.w3.org/2000/svg" xmlns:xlink="http://www.w3.org/1999/xlink" width="1280" height="640" viewBox="0 0 1280 640">
  <defs>
    <clipPath id="clip-pndov2-banner">
      <rect width="1280" height="640"/>
    </clipPath>
  </defs>
  <g id="pndov2-banner" clip-path="url(#clip-pndov2-banner)">
    <rect id="Rectangle_12" data-name="Rectangle 12" width="1280" height="640" rx="200" fill="#fff"/>
    <g id="Group_6" data-name="Group 6" transform="translate(99.218 191.362)">
      <path id="Path_13" data-name="Path 13" d="M1370.952-246.05c15.007,47.121,35.508,57.312,64.072,78.068s55.6,21.539,124.1,17.729,99.529-1.4,149.916-32.969,57.715-80.123,58.847-91.732,14.225-64.987-48.526-108.453S1555.545-454.4,1509.67-450.4s-79.111,18.528-88.367,27.567-34.489,26.4-46.308,66.364S1355.944-293.171,1370.952-246.05Z" transform="translate(-1317.647 450.781)" fill="#fff"/>
      <path id="Path_14" data-name="Path 14" d="M1408.006-341.15c25.5-24.727,57.307-32.891,82.111-29.859s17.107,41.989,17.107,41.989S1494.7-286.1,1475.81-264.015s-44.166,23.327-44.166,23.327-37.634-6.3-43.544-31.414S1382.5-316.423,1408.006-341.15Z" transform="translate(-1314.578 461.592)"/>
      <path id="Path_15" data-name="Path 15" d="M1582.266-364.692c10.759-6.485,25.634-13.3,50.594,0s42.484,22.312,55.158,49.293,13.113,42.693-4.461,58.633-52.308,8.187-57.4,7.055-39.092-15.142-46.479-44.378S1571.506-358.207,1582.266-364.692Z" transform="translate(-1288.743 461.495)"/>
      <path id="Path_16" data-name="Path 16" d="M1531.162-289.531s18.117-10.73,25.815-8.709,7.583,11.149,4.977,16.8-24.26,27.993-24.26,27.993-23.42-12.557-30.263-23.754-4.105-18.39,2.893-21.034S1531.162-289.531,1531.162-289.531Z" transform="translate(-1298.394 471.557)"/>
      <path id="Path_17" data-name="Path 17" d="M1505.943-246.443s.035,12.005,9.18,13.417,27.4-7.768,27.4-7.768l-.878-18.361h0l.878,18.361s12.464,7.768,22.034,7.768,13.077-2.555,16.078-8.646-4.073-15.717-4.073-15.717" transform="translate(-1302.551 473.818)" fill="none" stroke="#000" stroke-linecap="round" stroke-linejoin="round" stroke-width="12"/>
      <path id="Path_18" data-name="Path 18" d="M1326.623-387.029s13.338-29.009,32.3-41.869,32.9-11.3,49.525-4.785c6.136,2.406,11.7,5.445,11.391,15.276,0,0-21.041,16.4-33.024,42.369-7.45,16.145-17.227,59.963-17.227,59.963a22.154,22.154,0,0,1-10.666-1.092c-15.611-5.622-24.224-12.68-32.3-30.146S1326.623-387.029,1326.623-387.029Z" transform="translate(-1323.035 452.443)"/>
      <path id="Path_19" data-name="Path 19" d="M1653.394-444.641s25.241-9.869,47.133,5.742,32.359,33.017,40.434,56.7-6.938,37.8-6.938,37.8a23.236,23.236,0,0,1-10.811,7.324s-11.3-24.567-33.793-41.256c-12.954-9.613-48.181-29.319-48.181-29.319a52.606,52.606,0,0,1-3.155-8.286C1632.041-437.942,1653.394-444.641,1653.394-444.641Z" transform="translate(-1280.16 451.199)"/>
      <path id="Path_20" data-name="Path 20" d="M1433.031-307.806s11.809-13.427,19.1-13.427,17.27,20.783,17.27,20.783" transform="translate(-1314.566 468.471)" fill="none" stroke="#fff" stroke-linecap="round" stroke-linejoin="round" stroke-width="12"/>
      <path id="Path_21" data-name="Path 21" d="M1610.166-302.747s8.039-18.065,17.7-18.065,22.231,21.973,22.231,21.973" transform="translate(-1283.825 468.529)" fill="none" stroke="#fff" stroke-linecap="round" stroke-linejoin="round" stroke-width="12"/>
      <path id="Path_22" data-name="Path 22" d="M1428.054-236.767c3.362,5.45,10.087,9.775,26.332,8.219s21.379-4.459,24.67-9.909,1.548-12.317-11.476-14.157-15.256-1.131-25.13,2.264S1424.692-242.217,1428.054-236.767Z" transform="translate(-1308.801 477.707)" fill="#f0b7cd"/>
      <path id="Path_23" data-name="Path 23" d="M1594.851-258.283c3.858-4.707,9.8-5.678,20.523-3.853s12.014,2.82,18.6,8.377,5.948,12.482,4.272,13.738-6.048,5.254-16.489,4.4-21.235-7.5-21.235-7.5S1590.994-253.576,1594.851-258.283Z" transform="translate(-1292.443 476.439)" fill="#f0b7cd"/>
    </g>
    <g id="Group_9" data-name="Group 9" transform="matrix(0.927, 0.375, -0.375, 0.927, 389.9, 161.328)">
      <path id="Path_24" data-name="Path 24" d="M.008,29.9c.384,15.543,4.48,30.792,17.654,35.884S60.329,49.07,60.329,49.07L65.961,24.9S38.387,2.075,25.914.156-.376,14.356.008,29.9Z" transform="translate(0 0)" fill="#c0efde"/>
      <path id="Path_25" data-name="Path 25" d="M2.5,23.41A119.357,119.357,0,0,1,24.414,6.256c13.285-8.119,30-8.561,39.339,0S71.62,37.343,71.62,37.343s-.553,17.632-11.514,26.673-33.536-1.535-33.536-1.535L0,43.735Z" transform="translate(81.903 5.222)" fill="#c0efde"/>
      <path id="Path_26" data-name="Path 26" d="M10.841,30.974c8.968,1.956,13.639-2.956,13.639-2.956s3.83-5.474,3.83-11.489A51.29,51.29,0,0,0,26.5,4.233,16.987,16.987,0,0,0,14.939,0C7.549,0,6.675,1.613,6.675,1.613S1.888,7,.494,13.1,1.1,26,1.1,26,1.874,29.018,10.841,30.974Z" transform="translate(58.957 22.93)" fill="#ab8484"/>
    </g>
    <text id="p_a_ndo.me" data-name="p(a)ndo.me" transform="translate(572 381)" fill="#ff918a" font-size="110" font-family="Quicksand-Bold, Quicksand" font-weight="700"><tspan x="0" y="0">p(a)ndo.me</tspan></text>
  </g>
</svg>
